<mxfile host="app.diagrams.net" modified="2023-07-25T12:59:37.078Z" agent="Mozilla/5.0 (Windows NT 10.0; Win64; x64) AppleWebKit/537.36 (KHTML, like Gecko) Chrome/115.0.0.0 Safari/537.36 Edg/115.0.1901.183" version="21.5.0" etag="v3WokrfPyYgOgQlhf8Vg" type="github">
  <diagram name="Seite-1" id="ruCr5N2EZTQGO_NWn3Fo">
    <mxGraphModel>
      <root>
        <mxCell id="0" />
        <mxCell id="1" parent="0" />
      </root>
    </mxGraphModel>
  </diagram>
</mxfile>
